<?xml version="1.0" standalone="no"?>
<!DOCTYPE svg PUBLIC "-//W3C//DTD SVG 20010904//EN"
 "http://www.w3.org/TR/2001/REC-SVG-20010904/DTD/svg10.dtd">
<svg version="1.0" xmlns="http://www.w3.org/2000/svg"
 width="777.000000pt" height="777.000000pt" viewBox="0 0 777.000000 777.000000"
 preserveAspectRatio="xMidYMid meet">
<metadata>
Created by potrace 1.11, written by Peter Selinger 2001-2013
</metadata>
<g transform="translate(0.000000,777.000000) scale(0.100000,-0.100000)"
fill="#000000" stroke="none">
<path d="M0 6580 l0 -1190 25 -5 c14 -3 36 -7 50 -10 19 -4 34 2 58 25 29 27
47 37 47 26 0 -3 -13 -19 -29 -36 -28 -31 -33 -77 -7 -64 6 3 0 -3 -13 -14
l-24 -20 21 -13 c12 -8 22 -17 22 -20 0 -3 -33 -5 -72 -5 l-73 1 -2 -2627 -3
-2628 374 0 c290 0 375 3 379 13 4 9 6 9 6 0 1 -20 4788 -19 4816 1 11 7 40
12 65 11 28 -2 58 5 82 17 20 11 50 18 65 16 23 -2 28 -8 28 -30 l-1 -28 242
0 242 0 7 29 c3 15 5 82 4 147 -2 95 1 125 14 151 18 33 23 93 9 93 -5 0 -17
-9 -27 -20 -10 -11 -24 -20 -31 -20 -16 0 -44 51 -44 79 0 11 -5 23 -11 26
-13 9 -69 85 -69 96 0 4 9 10 20 14 25 8 62 69 69 114 6 34 8 36 51 39 25 2
52 9 60 16 28 24 48 25 85 5 l38 -20 -5 51 c-4 43 -1 60 19 97 14 24 41 56 61
71 19 15 48 39 65 54 16 16 35 28 42 28 7 0 25 11 41 25 16 14 34 24 39 22 16
-6 18 -48 4 -105 -14 -61 -5 -87 29 -86 18 0 22 -8 28 -60 5 -34 8 -65 9 -71
0 -5 -13 -9 -28 -7 -22 3 -30 -1 -34 -19 -3 -12 -17 -42 -30 -66 -12 -24 -23
-52 -23 -61 0 -33 25 -87 53 -114 15 -15 27 -37 27 -49 0 -38 -23 -99 -45
-122 -31 -31 -53 -68 -58 -97 -8 -39 -23 -72 -56 -125 -31 -49 -39 -89 -21
-100 6 -3 14 5 20 20 12 31 51 85 62 85 4 0 8 -27 8 -60 0 -52 2 -60 19 -60
16 0 20 10 25 53 14 107 18 123 41 162 13 22 36 61 50 87 14 27 32 48 40 48 8
0 21 14 30 30 13 25 20 29 41 24 23 -6 25 -4 19 15 -9 29 11 52 40 45 32 -8
55 20 55 68 0 24 9 55 21 75 13 20 19 44 16 59 -2 14 2 68 9 122 22 162 39
227 68 251 9 7 16 22 16 32 0 26 17 24 31 -3 6 -13 27 -40 47 -60 29 -30 35
-44 34 -75 -2 -36 4 -43 88 -123 82 -78 90 -88 90 -123 l0 -38 -35 7 c-37 7
-65 -7 -65 -33 0 -33 73 -78 101 -63 29 16 134 18 175 4 37 -13 40 -13 59 11
15 18 24 22 35 15 41 -26 40 -43 40 775 0 885 6 826 -77 739 -23 -25 -43 -42
-43 -38 0 5 -7 -2 -16 -14 -8 -12 -22 -22 -30 -22 -8 0 -14 -5 -14 -11 0 -6
-7 -8 -15 -5 -9 3 -18 -1 -21 -9 -3 -7 -12 -11 -19 -9 -16 7 -45 -33 -45 -63
0 -16 -7 -23 -27 -26 l-28 -4 28 -2 c53 -2 59 -88 12 -177 -22 -42 -22 -45 -8
-96 12 -41 13 -59 4 -82 -7 -20 -7 -34 -1 -40 15 -15 12 -42 -5 -56 -8 -7 -15
-21 -15 -31 0 -26 40 -25 47 1 6 21 29 27 35 9 2 -6 16 -11 31 -11 17 0 32 -9
42 -24 13 -20 24 -24 69 -24 66 0 82 -22 41 -57 -25 -22 -25 -24 -10 -54 18
-34 14 -62 -8 -53 -10 4 -17 -5 -21 -31 -4 -19 -4 -40 -1 -45 8 -13 -48 -40
-85 -40 -17 0 -40 5 -51 10 -15 8 -19 7 -19 -5 0 -8 -5 -15 -11 -15 -5 0 -15
-13 -20 -30 -7 -20 -18 -30 -31 -30 -10 0 -17 -4 -13 -10 7 -11 -5 -63 -13
-56 -2 3 -17 -3 -32 -14 -16 -11 -35 -17 -48 -13 -21 5 -22 10 -19 121 2 96 0
121 -16 150 -12 22 -16 44 -12 62 4 18 0 40 -9 59 -9 16 -16 44 -16 61 0 23
-4 30 -19 30 -11 0 -21 -4 -23 -10 -2 -6 -11 -5 -24 3 -12 7 -41 23 -65 36
-61 32 -109 70 -109 84 0 15 -39 58 -65 73 -27 14 -74 111 -75 151 0 22 -10
44 -31 68 -18 20 -33 47 -35 61 -1 14 -7 30 -12 37 -5 7 -13 53 -17 104 -9
113 6 186 42 202 13 6 23 19 23 31 0 20 1 20 26 4 36 -24 44 -8 44 100 0 82 2
90 25 112 21 19 24 27 15 43 -8 16 -5 30 12 62 23 45 75 98 95 99 32 0 42 101
18 176 -4 14 -1 26 10 35 46 38 55 51 55 79 0 16 9 48 21 70 17 31 20 50 15
84 -10 64 -25 79 -82 82 -82 5 -158 15 -177 25 -38 21 -64 91 -70 189 -2 33
-4 35 -32 31 -16 -1 -38 -7 -48 -12 -9 -6 -22 -7 -27 -4 -15 9 -60 -19 -129
-82 l-64 -58 -8 -85 c-8 -86 -16 -123 -42 -193 -10 -28 -12 -52 -5 -94 6 -39
5 -59 -3 -69 -9 -11 -8 -25 6 -59 14 -39 15 -53 5 -95 -7 -31 -20 -54 -32 -61
-17 -9 -18 -13 -5 -32 12 -19 12 -26 -5 -52 -10 -16 -18 -39 -18 -51 0 -11 -9
-29 -20 -39 -11 -10 -20 -23 -20 -29 -1 -6 -13 -26 -29 -44 -38 -44 -80 -48
-99 -9 -12 26 -18 28 -46 22 -75 -15 -107 -17 -121 -5 -21 17 -83 17 -123 1
-38 -16 -75 -78 -71 -119 3 -30 -19 -72 -37 -72 -6 0 -17 -7 -24 -15 -17 -20
-45 -19 -110 6 -30 11 -61 21 -67 20 -125 -3 -139 -1 -197 29 -32 17 -68 37
-80 45 -18 14 -19 15 -2 15 15 0 17 7 14 48 -3 40 -1 47 15 44 11 -2 17 4 17
17 0 11 12 28 26 38 26 19 26 20 10 51 -20 38 -21 89 -2 133 24 58 30 196 11
259 -10 30 -20 102 -24 160 l-6 105 -80 3 c-84 3 -105 14 -105 55 0 27 54 77
84 77 15 0 30 8 36 20 6 11 14 19 18 16 4 -2 17 0 29 5 21 8 22 12 16 69 -5
48 -2 68 13 98 10 20 22 39 27 40 4 2 7 10 7 18 0 9 5 25 12 37 6 12 13 43 15
69 3 38 0 49 -15 57 -15 8 -24 5 -42 -14 -32 -34 -43 -32 -69 15 l-22 40 28 0
c15 0 42 9 60 20 29 18 35 18 67 5 33 -14 34 -14 44 13 6 15 13 40 17 56 3 15
14 40 25 55 10 14 21 49 25 76 4 28 13 61 20 75 8 14 16 41 20 61 3 20 17 46
30 59 14 13 30 42 36 64 12 46 35 76 57 76 10 0 12 -5 7 -17 -14 -33 -18 -73
-6 -73 6 0 11 11 11 24 0 12 12 45 26 72 16 31 26 64 26 89 -1 24 9 59 23 87
l25 48 -36 40 c-20 21 -33 44 -29 50 4 6 -2 21 -12 33 -32 36 -56 103 -49 133
5 17 2 32 -7 43 -22 24 -27 84 -12 129 8 21 12 52 10 68 -2 16 -4 34 -4 40 -1
7 -17 15 -37 18 -19 4 -38 14 -41 22 -3 7 -11 14 -17 14 -7 0 -25 14 -41 30
-23 24 -31 43 -35 83 -4 45 -8 52 -28 55 -16 3 -21 8 -18 20 10 32 -52 79 -69
52 -3 -5 -18 -10 -33 -11 -36 0 -94 -22 -94 -34 0 -23 -20 -44 -53 -56 -26
-10 -35 -19 -35 -36 0 -13 4 -23 9 -23 10 0 15 -13 26 -67 6 -30 4 -33 -18
-33 -24 0 -33 -11 -61 -82 -8 -20 -26 -44 -40 -53 -31 -21 -66 -75 -66 -103 0
-11 7 -27 15 -36 8 -8 15 -19 15 -25 0 -19 -42 -33 -83 -28 -38 5 -44 2 -87
-41 -25 -26 -58 -55 -73 -65 -15 -10 -27 -26 -27 -35 0 -41 -49 -121 -89 -147
-23 -14 -41 -29 -41 -34 0 -6 -8 -12 -19 -16 -10 -3 -26 -26 -36 -53 -9 -26
-29 -64 -43 -85 l-25 -38 21 -15 c17 -12 20 -21 15 -47 -3 -18 -14 -41 -24
-53 -20 -22 -25 -69 -9 -79 17 -11 11 -38 -19 -83 -26 -38 -29 -49 -24 -97 8
-77 -12 -143 -50 -164 -16 -9 -43 -29 -60 -44 -18 -15 -45 -35 -60 -43 -39
-21 -65 -49 -72 -77 -9 -34 17 -41 76 -20 47 17 49 17 66 -1 15 -16 16 -19 3
-24 -8 -3 -26 -19 -40 -36 -74 -89 -129 -124 -116 -72 7 30 -10 44 -19 16 -8
-26 -82 -100 -118 -119 -15 -8 -27 -22 -27 -32 0 -29 -34 -79 -58 -85 -23 -7
-52 -44 -33 -44 6 0 18 -12 28 -26 16 -25 16 -27 -7 -44 -25 -19 -22 -50 5
-50 9 0 14 4 10 9 -7 12 31 25 46 15 7 -4 21 -8 33 -9 11 -1 25 -3 30 -4 4 0
5 -11 2 -23 -4 -13 -9 -45 -11 -73 -1 -27 -8 -79 -14 -115 -8 -51 -7 -69 3
-85 20 -30 59 -278 51 -317 -4 -18 -18 -47 -31 -65 -17 -22 -24 -45 -24 -75 0
-31 -7 -54 -25 -78 -14 -18 -28 -50 -31 -69 -4 -20 -8 -44 -10 -54 -2 -10 -17
-34 -33 -55 -26 -30 -31 -45 -31 -88 0 -58 -34 -161 -61 -184 -9 -8 -28 -38
-42 -65 -14 -28 -55 -81 -91 -119 -36 -37 -66 -73 -67 -79 -3 -30 4 -63 16
-77 7 -8 22 -34 34 -58 27 -54 21 -119 -21 -209 -15 -34 -28 -73 -28 -88 0
-35 -51 -166 -62 -159 -4 3 -5 16 -2 30 5 21 -2 33 -42 71 -56 51 -139 103
-169 103 -36 1 -70 36 -70 72 0 29 -5 35 -42 53 -42 19 -43 21 -43 66 0 64 -6
77 -50 99 -60 31 -77 59 -85 147 -4 43 -13 90 -21 105 -18 35 -100 98 -128 98
-12 0 -39 7 -61 15 -22 8 -61 14 -87 15 -64 0 -95 13 -48 20 44 6 46 31 3 43
-27 8 -35 6 -55 -15 -13 -14 -49 -33 -82 -42 l-58 -18 -28 27 c-30 28 -50 26
-80 -9 -16 -20 -30 -20 -30 -1 0 23 -34 35 -105 35 -65 0 -66 0 -88 38 -12 20
-21 39 -19 42 1 3 17 10 34 16 33 11 50 34 25 34 -8 0 -33 -6 -55 -14 -46 -16
-52 -13 -52 24 0 14 -10 37 -22 50 -13 13 -21 33 -20 43 3 17 -1 18 -36 12
-34 -5 -42 -3 -51 14 -18 33 -13 49 17 53 24 3 22 6 -30 31 -31 15 -69 27 -85
27 -37 0 -174 40 -194 57 -21 17 -35 17 -102 -7 -80 -28 -109 -26 -146 10 -37
38 -88 56 -197 72 -69 10 -91 10 -117 -1 -18 -7 -45 -18 -62 -24 -16 -6 -53
-26 -81 -44 -28 -18 -64 -36 -80 -39 -48 -9 -68 -29 -54 -53 13 -25 4 -88 -15
-99 -38 -22 -67 -131 -46 -170 13 -25 5 -49 -17 -57 -10 -2 -26 -20 -37 -39
-43 -72 -98 -146 -111 -146 -22 0 -44 -30 -44 -60 0 -47 -21 -81 -53 -87 -15
-3 -35 -16 -43 -28 -21 -32 -29 -92 -15 -109 8 -9 9 -26 3 -53 -5 -21 -6 -47
-2 -58 10 -27 -6 -55 -30 -55 -21 0 -52 -15 -81 -38 -9 -7 -23 -12 -30 -10 -7
2 -15 -7 -17 -19 -3 -23 -34 -39 -52 -28 -17 11 -12 55 8 57 9 0 23 2 31 2 8
1 19 9 25 19 9 15 7 21 -8 32 -13 10 -20 31 -24 67 -6 71 -16 81 -66 72 -94
-16 -167 0 -220 49 -27 25 -27 26 -7 36 18 10 22 7 36 -19 17 -33 60 -44 52
-12 -3 9 -10 38 -17 64 -15 58 -34 62 -72 16 -32 -39 -44 -34 -25 12 14 32 12
49 -20 177 -3 13 -2 39 1 58 8 39 28 46 58 18 24 -21 37 -9 49 48 10 41 42 89
61 89 4 0 8 -10 8 -22 0 -49 11 -68 39 -68 40 0 51 18 51 81 0 48 -3 59 -19
64 -10 3 -18 13 -17 23 0 9 -6 17 -14 17 -8 0 -16 9 -17 20 l-3 20 9 -20 c9
-19 10 -19 10 3 1 26 29 41 41 22 9 -14 26 49 22 80 -1 10 1 11 4 3 3 -7 10
-13 15 -13 6 0 7 4 4 10 -3 5 0 7 8 4 10 -3 25 16 48 63 18 37 35 71 36 74 2
3 -8 11 -22 19 -25 13 -35 40 -15 40 6 0 10 5 10 11 0 7 18 31 40 55 22 24 40
49 40 56 0 10 -2 10 -8 1 -11 -17 -31 -2 -56 43 -12 22 -27 40 -34 40 -7 1
-20 2 -29 3 -16 1 -16 3 -3 11 13 8 12 10 -3 10 -32 0 -32 31 0 59 26 23 44
69 21 55 -4 -3 -8 2 -8 10 0 9 -4 16 -10 16 -5 0 -10 5 -10 11 0 5 5 7 10 4 6
-3 10 -2 10 3 0 10 79 51 91 48 13 -2 49 37 49 54 0 16 13 24 73 49 38 15 31
29 -28 54 -28 12 -51 25 -53 29 -2 4 -10 8 -17 8 -18 0 -38 37 -31 56 7 17
-23 19 -58 3 -24 -12 -46 -54 -46 -90 0 -30 -18 -22 -25 10 -5 24 -12 30 -38
33 -25 2 -33 8 -35 27 -5 33 12 46 66 47 40 1 69 6 92 14 12 5 46 -3 57 -12 9
-7 13 -7 13 2 0 9 4 9 17 -1 9 -8 14 -9 10 -3 -4 7 0 14 8 17 7 3 21 30 29 58
9 29 21 56 26 59 7 4 3 24 -11 56 -23 52 -48 86 -58 80 -3 -2 -7 18 -8 45 -2
38 2 51 16 59 25 13 105 31 166 36 28 3 65 10 82 16 28 10 39 9 78 -10 57 -28
58 -27 53 3 -7 34 10 53 52 60 64 11 80 29 80 88 0 62 9 99 21 91 5 -3 9 -17
9 -32 0 -32 9 -46 33 -55 24 -9 22 -59 -3 -82 -22 -20 -27 -55 -8 -55 6 0 9
-3 5 -6 -12 -12 32 -81 67 -105 32 -21 66 -73 80 -121 7 -23 33 -23 87 1 l42
19 17 -21 c10 -12 37 -27 61 -34 40 -11 164 -48 314 -92 45 -14 64 -25 77 -47
10 -16 16 -33 15 -39 -5 -13 -83 -16 -113 -5 -19 7 -23 5 -28 -16 -9 -33 -23
-30 -47 11 -24 41 -43 48 -89 35 -19 -6 -40 -10 -46 -10 -18 0 -54 36 -54 53
0 9 -11 28 -25 43 l-26 28 -28 -31 c-20 -22 -43 -34 -81 -42 -65 -14 -90 -34
-90 -73 0 -16 -9 -56 -21 -90 -13 -40 -18 -73 -14 -94 5 -28 2 -36 -24 -55
-17 -12 -36 -39 -42 -58 -6 -20 -23 -59 -37 -88 -22 -44 -24 -56 -14 -78 7
-14 19 -28 27 -31 21 -9 80 29 81 52 1 10 3 24 4 29 2 6 3 17 4 25 1 8 11 16
24 18 12 2 22 8 22 13 0 5 4 8 9 6 5 -1 17 7 26 18 9 11 13 13 9 5 -5 -10 -1
-9 14 4 12 10 19 23 16 27 -3 5 0 9 5 9 6 0 11 6 11 14 0 8 14 25 31 38 17 13
47 38 67 56 41 38 68 37 109 -4 21 -21 33 -25 60 -21 36 6 54 -11 67 -64 7
-34 39 -42 76 -21 23 13 33 15 47 5 10 -6 16 -17 14 -25 -26 -94 -31 -119 -31
-151 0 -40 31 -120 38 -99 7 22 50 13 71 -16 18 -25 22 -26 43 -13 64 40 75
44 101 37 41 -10 37 -44 -5 -48 -27 -2 -34 -8 -36 -30 -3 -23 1 -28 25 -34 87
-19 93 -23 93 -66 0 -52 45 -98 96 -98 19 0 34 -4 34 -8 0 -16 70 -90 90 -95
70 -18 24 121 -71 215 -72 71 -103 91 -127 83 -22 -6 -55 20 -49 39 2 6 26 11
55 11 29 0 52 3 52 7 0 3 -16 19 -36 35 l-36 29 19 37 c24 48 57 50 81 6 39
-71 73 -109 124 -136 48 -26 53 -32 58 -69 11 -77 61 -123 74 -69 12 45 57 29
110 -40 20 -27 36 -40 39 -33 3 10 15 7 45 -10 23 -12 43 -22 45 -22 3 0 8 16
12 37 3 20 19 52 35 72 15 20 30 45 32 56 2 11 11 19 19 19 12 -1 21 18 33 72
10 41 24 77 31 81 7 5 25 34 38 65 43 98 96 132 111 72 12 -46 36 -26 42 35 3
20 7 53 9 74 4 26 -1 50 -15 77 -11 21 -20 46 -20 54 0 18 -34 38 -46 28 -5
-4 0 3 10 16 13 15 30 22 53 22 26 0 33 4 33 19 0 10 -11 26 -25 35 -14 9 -25
22 -25 30 0 11 -80 102 -84 94 -14 -33 -27 -43 -61 -46 -27 -2 -43 2 -59 17
-12 11 -36 23 -53 27 -34 7 -55 -9 -84 -63 -9 -17 -40 -44 -70 -61 -30 -17
-70 -50 -89 -73 -56 -68 -90 -99 -119 -105 -67 -16 -87 -51 -55 -99 10 -16 14
-34 10 -53 -5 -22 -1 -33 19 -52 31 -29 33 -77 5 -108 -28 -30 -40 -28 -53 8
-8 20 -22 33 -43 40 -42 14 -53 29 -62 81 -6 35 -12 44 -32 49 -23 5 -25 11
-28 70 -3 69 -15 92 -42 88 -26 -5 -24 16 2 22 35 9 36 47 1 61 -15 6 -38 16
-50 22 -12 5 -38 7 -58 4 -46 -7 -64 -1 -58 22 7 27 -19 43 -51 31 -34 -13
-35 5 0 51 14 19 41 66 60 104 19 39 40 78 46 88 11 14 9 24 -10 60 -25 48
-27 67 -9 86 10 11 6 13 -20 8 -18 -4 -34 -3 -37 1 -3 5 6 60 18 123 13 63 22
116 20 118 -2 3 -20 -3 -39 -12 -47 -22 -49 -22 -100 13 -24 17 -47 30 -50 30
-4 0 -20 -11 -37 -25 -36 -30 -62 -33 -53 -6 4 15 -1 19 -33 25 -22 3 -45 13
-52 21 -11 13 -29 14 -104 9 l-91 -7 -54 -51 c-60 -56 -79 -49 -38 13 29 43
130 101 215 122 46 11 56 11 80 -3 32 -18 114 -30 147 -22 13 3 26 16 29 29 3
12 17 30 31 39 35 23 32 52 -10 78 -31 20 -35 28 -35 66 0 39 -5 48 -60 102
-33 33 -60 64 -60 70 0 6 12 22 28 36 l27 24 -22 19 c-12 10 -20 21 -17 23 2
3 -9 20 -26 38 l-31 33 -27 -25 c-15 -13 -43 -35 -63 -48 -29 -19 -36 -29 -33
-48 4 -20 2 -23 -16 -17 -23 7 -26 -6 -8 -35 18 -29 3 -35 -50 -21 -60 16 -68
24 -54 55 8 18 20 26 46 28 l36 3 -15 29 c-18 33 -19 39 -5 31 6 -4 9 3 6 17
-7 48 22 92 121 179 22 21 59 62 82 92 31 41 48 55 67 55 15 0 39 12 57 29 18
17 41 35 52 41 19 10 37 70 50 177 14 102 20 120 40 120 12 0 25 12 34 30 7
17 21 39 31 50 22 26 42 119 48 220 2 44 9 83 15 87 29 18 67 -40 67 -103 0
-35 41 -85 62 -76 9 3 24 27 33 54 30 79 55 92 75 37 13 -34 28 -30 80 19 64
62 83 71 104 48 28 -30 19 -55 -39 -105 -30 -26 -55 -51 -55 -57 0 -5 15 -9
34 -9 26 0 41 8 66 36 17 20 39 52 48 71 10 21 31 43 53 54 39 19 76 83 86
146 3 18 9 33 14 33 16 0 61 101 51 113 -6 7 -12 21 -14 32 -2 13 -11 20 -28
20 -15 0 -26 7 -28 18 -3 14 3 17 30 15 30 -3 33 0 36 27 1 17 6 39 11 50 36
88 72 207 80 265 5 36 11 47 34 58 30 14 30 19 12 79 -6 18 -4 21 13 16 14 -3
24 2 32 16 12 24 9 26 -52 34 -38 6 -58 -13 -40 -37 19 -24 20 -56 2 -79 -17
-20 -19 -20 -25 -5 -4 9 -5 47 -3 83 2 55 0 66 -14 71 -11 3 -18 15 -18 30 0
14 -7 39 -16 55 -13 26 -20 30 -52 29 -78 -4 -79 -3 -48 29 26 27 28 34 22 78
l-7 48 27 -42 c31 -47 74 -69 147 -77 41 -4 57 -14 117 -67 39 -34 70 -67 70
-74 0 -6 14 -24 31 -41 49 -46 54 -62 29 -89 -28 -30 -21 -40 39 -55 45 -11
51 -10 72 10 13 12 40 32 59 44 30 19 35 27 35 62 0 41 26 93 48 95 93 5 125
21 132 68 3 20 10 64 16 98 6 34 8 70 5 80 -10 28 -93 62 -153 62 -58 -1 -73
-17 -49 -53 12 -19 12 -26 0 -49 -12 -22 -21 -27 -54 -27 -22 0 -43 0 -47 0
-5 0 -8 3 -8 8 0 4 -10 17 -23 30 -23 23 -27 34 -15 46 4 3 8 15 10 25 2 17
-5 19 -75 17 l-78 -1 12 24 c16 31 1 56 -25 41 -25 -13 -83 63 -77 101 3 22
-4 36 -40 69 -50 46 -51 67 -9 107 34 32 39 59 18 87 -25 35 -33 32 -33 -9 0
-42 -17 -45 -50 -10 -24 26 -45 31 -68 16 -11 -7 -12 -12 -1 -29 11 -17 11
-30 0 -71 -12 -47 -11 -53 8 -77 12 -15 21 -37 21 -50 0 -22 28 -39 56 -33 33
6 50 -25 19 -37 -18 -7 -20 -35 -3 -52 9 -9 8 -12 -4 -12 -9 0 -23 -16 -33
-36 -9 -19 -28 -40 -43 -46 -15 -5 -52 -21 -82 -33 -71 -31 -165 -41 -174 -20
-3 8 -1 27 4 41 16 42 12 51 -36 79 -39 23 -50 25 -70 16 -30 -13 -30 -12 0
48 19 36 22 51 13 60 -17 17 -69 13 -106 -10 -26 -16 -44 -19 -75 -15 -23 3
-48 7 -56 7 -28 2 -104 -32 -137 -62 -36 -31 -69 -39 -60 -15 10 24 -26 46
-75 46 -33 0 -48 -5 -52 -16 -11 -29 -6 -32 34 -27 48 7 56 -16 13 -38 -16 -7
-45 -28 -66 -47 -21 -18 -42 -30 -48 -27 -5 4 1 15 13 26 l23 19 -24 20 c-27
23 -54 23 -59 -1 -4 -20 46 -81 59 -74 5 4 6 -1 3 -9 -4 -10 -19 -16 -40 -16
-26 0 -43 9 -71 36 -26 26 -41 34 -57 30 -11 -3 -24 -6 -28 -6 -4 0 -6 -15 -5
-34 1 -19 4 -32 6 -30 2 2 11 -2 20 -10 9 -8 30 -16 46 -18 35 -4 40 -22 8
-26 -12 -2 -31 6 -42 17 -22 22 -27 23 -165 22 -103 -1 -122 -5 -129 -29 -3
-9 -17 -36 -31 -58 -25 -41 -25 -43 -8 -64 41 -51 214 -7 243 63 10 25 16 27
66 27 56 0 77 -16 55 -43 -6 -7 -14 -31 -18 -54 -6 -38 -4 -41 21 -47 23 -6
34 -1 63 26 20 18 41 38 48 44 17 15 40 12 97 -15 46 -22 48 -22 105 -5 31 9
74 23 95 30 47 18 47 18 47 -5 0 -28 -107 -102 -136 -95 -17 4 -34 -5 -67 -35
-24 -23 -52 -41 -62 -41 -9 0 -25 -10 -35 -22 -17 -21 -27 -23 -137 -24 -95
-1 -125 -5 -146 -19 -14 -9 -34 -14 -45 -11 -14 5 -22 -3 -37 -36 -23 -51 -22
-60 11 -93 18 -18 23 -31 18 -43 -4 -9 -7 -41 -6 -71 2 -58 19 -86 60 -102 29
-11 28 -27 -8 -109 -16 -38 -30 -75 -30 -84 0 -9 -4 -16 -8 -16 -12 0 -32 -47
-32 -75 0 -23 -43 -68 -77 -80 -27 -9 -48 -43 -72 -120 -13 -38 -30 -78 -39
-89 -10 -10 -49 -33 -88 -52 -76 -36 -99 -62 -64 -71 12 -3 27 -21 35 -39 8
-19 19 -34 24 -34 6 0 11 -19 11 -43 0 -48 -25 -80 -70 -90 -23 -6 -103 -67
-87 -67 4 0 -3 -11 -15 -25 -12 -14 -27 -25 -34 -25 -16 0 -24 -24 -13 -41 20
-33 9 -66 -36 -108 -24 -22 -48 -41 -53 -41 -18 0 -20 114 -2 135 6 7 13 26
16 42 3 15 11 35 18 43 7 8 12 36 11 62 -2 42 0 48 24 58 23 9 23 10 3 6 -22
-4 -22 -3 -9 12 8 9 12 23 9 31 -2 8 0 11 6 7 5 -3 10 0 9 7 -1 31 4 48 12 42
6 -3 8 3 6 15 -2 11 0 22 5 25 10 6 10 11 -10 151 -10 69 -11 101 -2 134 9 37
8 47 -5 62 -12 13 -14 29 -9 64 l6 47 -34 -6 c-28 -4 -38 -1 -61 23 -20 21
-26 36 -23 54 3 14 1 23 -4 20 -5 -3 -16 0 -25 8 -12 9 -15 9 -9 1 4 -8 1 -13
-9 -13 -15 0 -15 18 1 68 2 6 0 12 -5 12 -4 0 -8 6 -9 13 -1 6 -3 23 -6 38 -4
24 -2 25 51 26 75 1 98 24 98 96 l0 52 57 1 c59 2 178 39 178 56 0 5 4 7 9 4
5 -3 20 3 32 14 l24 20 -50 44 -50 45 19 32 c18 31 18 32 -4 80 -20 41 -22 53
-11 75 8 18 8 30 2 38 -6 7 -12 28 -15 47 -2 19 -7 50 -11 69 -9 48 8 87 47
108 37 20 108 84 108 98 0 12 112 64 138 64 11 0 25 11 33 28 9 18 22 27 39
28 27 1 56 8 80 17 8 3 24 7 34 9 27 4 55 59 57 112 2 26 8 46 13 46 6 0 6 4
-1 8 -10 6 -11 25 -3 83 5 41 10 96 10 123 0 40 6 56 33 88 71 86 83 95 142
113 32 9 89 32 126 50 37 19 69 31 73 28 3 -4 6 -1 6 5 0 7 13 12 30 12 l30 0
-16 33 c-9 18 -35 45 -57 59 -101 64 -112 97 -39 116 100 27 104 27 139 -20
17 -24 35 -59 40 -78 8 -29 11 -32 16 -15 4 11 23 31 42 44 32 21 38 23 60 11
21 -11 32 -11 65 0 27 9 43 10 52 3 23 -18 52 -23 198 -38 66 -7 80 -9 100
-18 43 -17 98 -15 153 7 41 17 57 20 57 11 0 -7 25 -23 55 -35 30 -12 55 -25
55 -29 0 -9 61 -31 85 -31 29 0 94 -32 100 -50 14 -46 99 -58 170 -25 17 9 40
17 50 20 11 2 41 11 68 19 26 8 47 13 47 10 0 -3 9 0 20 6 17 9 25 6 47 -17
16 -16 48 -34 71 -41 38 -12 43 -16 38 -35 -18 -63 -19 -77 -2 -77 26 0 45
-42 47 -110 2 -53 7 -68 26 -86 26 -25 29 -51 9 -98 -14 -32 -12 -39 24 -131
22 -53 52 -111 68 -130 37 -42 34 -81 -8 -90 -35 -8 -62 -39 -83 -95 -20 -55
-21 -92 -2 -144 13 -38 13 -39 -17 -64 -49 -41 -86 -83 -126 -142 -43 -65 -60
-83 -87 -95 -37 -15 -56 -15 -80 1 -31 20 -94 35 -122 28 -26 -7 -53 -60 -53
-103 0 -29 -52 -145 -82 -182 -23 -28 -59 -42 -82 -31 -11 5 -34 13 -51 18
-29 9 -33 17 -50 96 -3 15 -16 40 -29 55 -23 26 -26 27 -42 11 -15 -14 -15
-19 -4 -33 8 -9 14 -24 15 -33 3 -41 18 -98 27 -109 6 -7 23 -13 39 -13 40 0
44 -15 9 -40 -37 -26 -38 -38 -3 -51 15 -5 32 -18 39 -27 8 -12 28 -19 56 -20
24 -2 48 -9 55 -18 6 -8 15 -16 20 -16 20 -1 58 -20 69 -36 8 -9 14 -13 14 -8
1 23 30 -20 30 -45 0 -35 35 -48 80 -29 16 7 36 10 44 7 25 -10 137 22 167 47
l28 24 -34 16 c-19 10 -41 16 -47 15 -27 -4 -77 30 -78 54 0 12 64 47 78 42 7
-2 22 1 34 8 16 9 22 9 25 0 3 -7 9 -13 15 -13 18 0 68 -41 63 -51 -4 -5 2 -9
13 -9 10 0 30 -10 44 -23 17 -15 34 -22 52 -20 14 2 26 -1 26 -7 0 -6 7 -4 16
5 13 12 19 13 24 5 6 -9 9 -9 12 0 3 9 16 2 40 -19 20 -17 42 -31 51 -31 8 0
20 -7 28 -16 9 -11 22 -14 43 -9 92 19 93 18 98 -9 4 -21 -2 -30 -36 -52 -80
-53 -101 -95 -53 -108 11 -3 18 -8 14 -12 -4 -4 -2 -13 4 -20 7 -9 6 -21 -5
-41 -8 -15 -15 -24 -16 -19 0 5 -6 3 -14 -3 -10 -9 -20 -9 -33 -3 -10 6 -21
10 -25 11 -11 1 -48 -37 -48 -50 0 -5 -4 -8 -9 -5 -12 8 -21 -18 -14 -42 4
-18 9 -19 41 -10 42 11 64 26 57 38 -3 4 2 13 9 19 11 10 19 7 35 -10 12 -13
21 -30 21 -38 1 -24 39 -103 62 -128 23 -25 68 -38 97 -28 10 3 38 30 60 60
49 65 75 75 223 85 9 0 35 84 43 137 5 34 2 50 -14 77 -29 47 -28 84 5 96 14
6 38 10 54 10 22 0 28 4 24 15 -3 8 -14 17 -25 20 -24 8 -27 76 -3 99 18 18
55 21 71 5 8 -8 17 -7 34 2 24 12 59 20 92 20 9 0 15 4 12 9 -9 15 39 -3 60
-23 30 -29 60 -47 86 -53 53 -12 77 -22 114 -49 20 -15 51 -25 85 -28 30 -3
68 -8 83 -12 23 -6 35 -2 67 24 90 73 196 99 260 66 35 -18 36 -21 10 -60 -28
-43 -25 -53 18 -60 69 -11 78 -21 158 -156 80 -133 104 -157 145 -144 23 7 78
-24 97 -55 11 -18 19 -20 62 -14 41 5 51 4 56 -11 6 -13 9 -14 16 -3 9 12 6
-4 -9 -39 -10 -25 61 12 106 54 42 41 46 42 68 28 13 -9 23 -19 23 -24 0 -4
10 -7 23 -6 12 1 28 3 35 4 6 0 20 9 30 19 47 45 128 70 165 51 10 -6 17 -21
17 -37 0 -37 17 -52 57 -52 33 0 83 -18 83 -30 0 -7 -68 -100 -80 -110 -12 -9
-23 -45 -21 -64 4 -26 -8 -66 -18 -66 -5 0 -16 6 -23 13 -7 7 -21 16 -30 20
-14 5 -18 1 -18 -19 0 -30 -27 -74 -45 -74 -7 0 -22 -12 -32 -26 -15 -20 -28
-26 -67 -28 -40 -1 -50 -6 -64 -29 -9 -15 -22 -27 -29 -27 -7 0 -15 -12 -19
-27 -3 -16 -9 -38 -14 -51 -9 -20 -7 -22 21 -22 16 0 46 7 66 15 47 20 48 19
30 -9 -10 -14 -12 -27 -6 -33 5 -5 1 -24 -11 -48 -25 -49 -25 -48 5 -81 17
-18 23 -34 19 -46 -6 -19 -4 -19 18 -4 20 13 29 13 63 2 72 -24 95 -27 95 -14
0 7 8 -3 18 -22 17 -34 18 -35 85 -38 37 -2 67 -7 67 -12 0 -6 -7 -11 -15 -11
-8 -1 -18 -2 -22 -4 -5 -1 -25 -5 -46 -9 -57 -12 -72 -47 -27 -66 16 -7 34
-25 41 -42 11 -28 10 -32 -11 -48 -33 -25 -17 -43 34 -38 22 3 55 -1 71 -8 17
-7 68 -15 115 -19 67 -5 89 -10 107 -27 29 -27 29 -54 2 -61 -19 -5 -21 -11
-15 -46 5 -35 3 -43 -25 -70 -17 -17 -34 -29 -37 -27 -4 2 -15 -4 -25 -14 -17
-17 -17 -19 6 -46 13 -15 48 -36 78 -46 85 -29 79 -29 136 0 28 15 90 16 98 2
4 -6 32 -8 74 -4 77 7 102 -6 94 -50 -3 -15 -1 -26 5 -26 6 0 16 -15 22 -34 9
-28 8 -44 -8 -89 l-18 -56 35 -15 c20 -8 47 -14 61 -13 18 1 28 -5 38 -26 7
-15 24 -34 36 -43 21 -13 27 -13 60 3 l36 18 0 1119 c0 616 -3 1116 -6 1113
-10 -10 -44 12 -44 27 0 19 32 29 42 14 4 -7 8 467 8 1055 l0 1067 -3340 0
c-2584 0 -3340 -3 -3340 -12 0 -7 12 -25 28 -41 25 -28 16 -29 -18 -2 -33 27
-70 24 -106 -7 -39 -34 -47 -24 -9 12 54 51 63 50 -480 50 l-505 0 0 -1190z
m3200 1160 c0 -5 -5 -10 -11 -10 -5 0 -7 5 -4 10 3 6 8 10 11 10 2 0 4 -4 4
-10z m3100 -20 c0 -11 -4 -20 -10 -20 -5 0 -10 9 -10 20 0 11 5 20 10 20 6 0
10 -9 10 -20z m620 -10 c0 -5 -4 -10 -9 -10 -6 0 -13 5 -16 10 -3 6 1 10 9 10
9 0 16 -4 16 -10z m-1980 -136 c0 -8 -9 -14 -20 -14 -22 0 -28 26 -7 33 16 6
27 -1 27 -19z m1390 12 c0 -2 -7 -7 -16 -10 -8 -3 -12 -2 -9 4 6 10 25 14 25
6z m104 -11 c-8 -19 62 -51 79 -36 9 7 17 -11 31 -69 l18 -78 -28 -51 c-20
-35 -25 -54 -18 -59 6 -4 15 -18 19 -32 7 -23 7 -23 -9 -7 -22 21 -33 22 -16
2 7 -9 10 -18 6 -22 -3 -3 -6 -2 -6 3 0 5 -9 11 -20 12 -43 4 -50 6 -50 14 0
4 -5 8 -11 8 -5 0 -8 -4 -5 -9 11 -18 -27 -21 -40 -4 -13 17 -14 17 -7 -1 6
-19 -1 -20 -67 -2 -8 3 -21 5 -29 5 -8 1 -11 8 -7 19 6 16 5 16 -8 0 -7 -10
-18 -18 -25 -18 -18 0 -13 25 9 45 17 16 20 29 18 74 -1 31 1 67 6 80 6 18 5
22 -4 16 -9 -6 -11 -4 -6 4 5 7 1 20 -6 29 -28 32 -29 41 -6 52 22 11 23 11 3
-5 -19 -16 -19 -16 10 -9 17 3 41 14 55 23 38 25 52 30 87 30 25 1 31 -2 27
-14z m-3102 -19 c13 -19 9 -33 -16 -44 -28 -13 -46 0 -46 34 0 33 42 39 62 10z
m1088 -16 c0 -5 -4 -10 -10 -10 -5 0 -10 5 -10 10 0 6 5 10 10 10 6 0 10 -4
10 -10z m1702 -115 c0 -5 -5 -11 -11 -13 -6 -2 -11 4 -11 13 0 9 5 15 11 13 6
-2 11 -8 11 -13z m-339 -33 c17 -20 19 -52 3 -49 -6 1 -10 -3 -9 -10 4 -17
-40 -40 -45 -24 -2 6 -8 9 -13 5 -5 -3 -9 0 -9 6 0 6 -4 9 -9 6 -10 -7 -21 16
-21 44 0 37 76 53 103 22z m340 -79 c-3 -7 -6 -13 -8 -13 -2 0 -5 6 -8 13 -3
8 1 14 8 14 7 0 11 -6 8 -14z m1227 -8 c0 -8 -4 -15 -10 -15 -5 0 -10 7 -10
15 0 8 5 15 10 15 6 0 10 -7 10 -15z m-788 -37 c-7 -7 -12 -8 -12 -2 0 14 12
26 19 19 2 -3 -1 -11 -7 -17z m-545 -10 c-3 -8 -6 -5 -6 6 -1 11 2 17 5 13 3
-3 4 -12 1 -19z m152 -28 c17 -22 28 -40 23 -40 -5 0 -23 18 -41 40 -17 22
-28 40 -23 40 5 0 23 -18 41 -40z m-484 -14 c0 -15 -4 -21 -9 -16 -5 5 -6 16
-3 24 9 22 12 20 12 -8z m233 -21 c-3 -3 -13 7 -23 22 l-17 28 23 -22 c12 -12
20 -25 17 -28z m337 35 c-3 -5 -11 -10 -16 -10 -6 0 -7 5 -4 10 3 6 11 10 16
10 6 0 7 -4 4 -10z m-251 -15 c-4 -8 -11 -15 -16 -15 -6 0 -5 6 2 15 7 8 14
15 16 15 2 0 1 -7 -2 -15z m344 -15 c17 -8 32 -18 32 -23 0 -4 5 -5 10 -2 6 3
10 2 10 -3 0 -5 -12 -14 -26 -20 -14 -7 -23 -8 -20 -3 3 5 -7 23 -24 41 -16
17 -26 30 -22 27 4 -2 22 -10 40 -17z m95 5 c-3 -9 -8 -14 -10 -11 -3 3 -2 9
2 15 9 16 15 13 8 -4z m-1712 -37 c3 -25 -3 -43 -16 -57 -13 -13 -17 -12 -35
4 -20 18 -26 45 -13 58 11 12 63 7 64 -5z m1689 -12 c0 -2 -8 -10 -17 -17 -16
-13 -17 -12 -4 4 13 16 21 21 21 13z m-420 -159 l-34 -32 30 36 c16 20 31 34
33 32 3 -2 -10 -18 -29 -36z m-5699 -52 c-1 -15 -24 -12 -29 3 -3 9 2 13 12
10 10 -1 17 -7 17 -13z m5189 -35 c0 -5 -4 -10 -10 -10 -5 0 -10 5 -10 10 0 6
5 10 10 10 6 0 10 -4 10 -10z m-662 -68 c2 -7 -6 -12 -17 -12 -21 0 -27 11
-14 24 9 9 26 2 31 -12z m1212 -36 c0 -20 -25 -37 -44 -30 -19 7 -22 50 -3 57
17 6 47 -11 47 -27z m210 -7 c23 -43 -48 -102 -77 -63 -30 42 -9 72 59 83 4 0
12 -8 18 -20z m-2170 -89 c0 -13 -19 -22 -30 -15 -14 9 0 34 16 28 8 -3 14 -9
14 -13z m-2975 -70 c11 -17 -5 -32 -21 -19 -8 6 -14 15 -14 20 0 12 27 11 35
-1z m1345 -21 c-12 -22 -40 -26 -40 -4 0 15 30 36 42 29 5 -3 3 -14 -2 -25z
m157 9 c-3 -8 -6 -5 -6 6 -1 11 2 17 5 13 3 -3 4 -12 1 -19z m-2432 -27 c7
-12 -12 -24 -25 -16 -11 7 -4 25 10 25 5 0 11 -4 15 -9z m2215 -40 c0 -11 -46
-57 -88 -89 -39 -29 -62 -20 -62 23 0 32 2 34 45 40 24 4 52 13 62 21 21 15
43 18 43 5z m-1320 -26 c0 -8 -7 -15 -15 -15 -8 0 -15 7 -15 15 0 8 7 15 15
15 8 0 15 -7 15 -15z m4840 -425 c0 -5 -7 -10 -16 -10 -8 0 -12 5 -9 10 3 6
10 10 16 10 5 0 9 -4 9 -10z m1590 -30 c0 -5 -7 -10 -15 -10 -8 0 -15 5 -15
10 0 6 7 10 15 10 8 0 15 -4 15 -10z m-3440 -40 c0 -5 -7 -10 -16 -10 -8 0
-12 5 -9 10 3 6 10 10 16 10 5 0 9 -4 9 -10z m643 -71 c4 1 17 1 28 1 20 0 21
-1 5 -22 -27 -38 -29 -47 -12 -63 17 -17 20 -47 10 -107 -5 -27 -12 -38 -30
-42 -17 -5 -24 -13 -24 -30 0 -21 -9 -27 -67 -44 -37 -12 -70 -19 -75 -16 -4
3 -8 16 -8 30 0 20 -4 24 -19 19 -10 -3 -24 1 -31 10 -7 8 -19 15 -27 15 -16
0 -52 -38 -53 -55 -2 -38 -45 -51 -100 -29 -38 15 -38 16 -23 43 21 35 11 90
-12 71 -12 -10 -21 -10 -43 -1 -16 7 -40 10 -53 6 -32 -7 -47 5 -55 41 -8 43
42 100 85 96 16 -2 32 2 36 8 5 8 13 6 26 -6 10 -9 19 -14 19 -10 0 4 5 4 12
0 7 -4 23 -9 37 -10 13 -2 27 -8 31 -15 17 -27 72 17 113 91 19 36 39 36 47
-1 8 -31 36 -36 59 -10 10 11 28 22 42 25 38 7 59 17 60 30 0 6 4 3 8 -7 4
-10 10 -18 14 -18z m1777 -61 c0 -16 -3 -19 -11 -11 -6 6 -8 16 -5 22 11 17
16 13 16 -11z m-2660 -92 c0 -8 -5 -18 -11 -22 -14 -8 -33 11 -25 25 10 16 36
13 36 -3z m-1561 -75 c12 -8 12 -13 -2 -35 -13 -19 -28 -26 -64 -31 -27 -3
-57 -8 -68 -10 -31 -6 -52 10 -36 28 34 42 135 70 170 48z m-72 -112 c13 -13
1 -53 -24 -81 -22 -25 -27 -23 -46 17 -21 43 -21 40 -1 59 18 19 55 21 71 5z
m4143 -50 c0 -5 -4 -9 -10 -9 -5 0 -10 7 -10 16 0 8 5 12 10 9 6 -3 10 -10 10
-16z m-3885 -19 c9 -15 -56 -100 -77 -100 -25 0 -24 50 3 84 21 26 62 35 74
16z m4605 -160 c0 -5 -5 -10 -11 -10 -5 0 -7 5 -4 10 3 6 8 10 11 10 2 0 4 -4
4 -10z m-5252 -147 c-2 -10 -10 -18 -18 -18 -8 0 -16 8 -18 18 -2 12 3 17 18
17 15 0 20 -5 18 -17z m2760 -8 c-3 -3 -9 2 -12 12 -6 14 -5 15 5 6 7 -7 10
-15 7 -18z m1892 -15 c0 -5 -8 -11 -17 -11 -17 -1 -17 -2 0 -6 9 -2 17 -13 17
-24 0 -22 -4 -23 -31 -9 -23 13 -24 24 -3 44 18 18 34 21 34 6z m814 -229 c3
-5 -1 -14 -8 -20 -16 -13 -32 2 -21 19 8 12 22 13 29 1z m-1782 -29 c18 -18
-2 -49 -41 -67 l-39 -17 -30 32 c-31 36 -52 34 -52 -4 0 -30 -18 -46 -51 -46
-33 0 -42 19 -20 43 50 57 65 66 104 69 60 5 118 1 129 -10z m-3728 -11 c8
-13 -11 -61 -24 -61 -5 0 -10 16 -10 35 0 34 20 49 34 26z m-356 -113 c18 -15
15 -42 -8 -63 -14 -13 -20 -14 -20 -5 0 7 -3 11 -6 7 -4 -3 -23 10 -43 29 -26
24 -32 36 -24 42 16 10 84 3 101 -10z m5942 7 c0 -8 -4 -15 -10 -15 -5 0 -10
7 -10 15 0 8 5 15 10 15 6 0 10 -7 10 -15z m-5380 -141 c0 -8 -4 -12 -10 -9
-5 3 -10 10 -10 16 0 5 5 9 10 9 6 0 10 -7 10 -16z m3200 -20 c0 -21 -48 -40
-68 -27 -31 19 -26 41 10 45 42 4 58 -1 58 -18z m-4660 -65 c0 -5 -4 -9 -10
-9 -5 0 -10 7 -10 16 0 8 5 12 10 9 6 -3 10 -10 10 -16z m560 -12 c0 -7 -6
-21 -13 -32 -17 -22 -32 -5 -22 25 7 22 35 28 35 7z m98 -62 c-3 -20 -54 -62
-64 -53 -7 7 24 70 40 80 15 10 29 -6 24 -27z m6147 -35 c3 -5 -1 -10 -9 -10
-9 0 -16 5 -16 10 0 6 4 10 9 10 6 0 13 -4 16 -10z m-185 -75 c-7 -9 -15 -13
-18 -10 -3 2 1 11 8 20 7 9 15 13 18 10 3 -2 -1 -11 -8 -20z m178 -10 c-3 -3
-9 2 -12 12 -6 14 -5 15 5 6 7 -7 10 -15 7 -18z m-223 -5 c-3 -6 -15 -10 -26
-10 -10 0 -19 -5 -19 -12 0 -6 -3 -9 -6 -5 -13 13 4 33 30 35 16 1 25 -2 21
-8z m175 -10 c12 -23 20 -88 12 -107 -2 -7 -9 -13 -15 -13 -7 0 -7 4 1 12 17
17 15 33 -3 18 -11 -9 -22 -9 -52 0 -21 7 -42 16 -46 19 -10 10 31 61 49 61 8
0 17 7 20 15 8 21 21 19 34 -5z m-130 -110 c0 -5 -5 -10 -11 -10 -5 0 -7 5 -4
10 3 6 8 10 11 10 2 0 4 -4 4 -10z m566 -27 c-10 -10 -19 5 -10 18 6 11 8 11
12 0 2 -7 1 -15 -2 -18z m-596 13 c0 -3 -4 -8 -10 -11 -5 -3 -10 -1 -10 4 0 6
5 11 10 11 6 0 10 -2 10 -4z m-2042 -148 c-6 -18 -28 -21 -28 -4 0 9 7 16 16
16 9 0 14 -5 12 -12z m2407 -57 c7 -12 -12 -24 -25 -16 -11 7 -4 25 10 25 5 0
11 -4 15 -9z m-6175 -15 c0 -8 -12 -28 -26 -43 l-25 -28 6 30 c10 46 45 77 45
41z m510 -156 c0 -5 -4 -10 -10 -10 -5 0 -10 5 -10 10 0 6 5 10 10 10 6 0 10
-4 10 -10z m3330 -10 c0 -5 -4 -10 -10 -10 -5 0 -10 5 -10 10 0 6 5 10 10 10
6 0 10 -4 10 -10z m2320 -79 c0 -6 -4 -13 -10 -16 -5 -3 -10 1 -10 9 0 9 5 16
10 16 6 0 10 -4 10 -9z m-73 -27 c-9 -9 -28 6 -21 18 4 6 10 6 17 -1 6 -6 8
-13 4 -17z m-2017 -44 c0 -5 -7 -10 -15 -10 -8 0 -15 5 -15 10 0 6 7 10 15 10
8 0 15 -4 15 -10z m-4114 -27 c-10 -10 -19 5 -10 18 6 11 8 11 12 0 2 -7 1
-15 -2 -18z m4207 -174 c-7 -101 -16 -135 -38 -158 l-23 -24 -21 34 c-21 35
-28 79 -12 79 5 0 14 13 21 29 26 64 77 92 73 40z m-373 -129 c0 -8 -9 -38
-20 -66 -10 -29 -16 -54 -13 -58 4 -3 -2 -6 -12 -6 -10 0 -26 -6 -34 -14 -14
-12 -26 -11 -86 9 -38 13 -71 29 -73 37 -2 8 32 29 93 57 52 24 95 47 95 50 0
3 11 6 25 6 16 0 25 -6 25 -15z m123 -52 c6 -18 -11 -48 -28 -48 -35 0 -20
-54 19 -66 16 -5 17 -8 3 -21 -13 -13 -18 -13 -44 1 -41 21 -60 53 -59 101 1
37 4 41 36 51 36 12 64 5 73 -18z m-903 -86 c0 -16 -32 -52 -46 -52 -19 0 -18
19 3 42 16 18 43 25 43 10z m45 -32 c-3 -5 -10 -10 -16 -10 -5 0 -9 5 -9 10 0
6 7 10 16 10 8 0 12 -4 9 -10z m-75 -73 c0 -19 -21 -37 -42 -37 -21 0 -22 4
-8 31 12 21 50 26 50 6z m-3720 -38 c0 -5 -7 -9 -15 -9 -15 0 -20 12 -9 23 8
8 24 -1 24 -14z m-384 -90 c10 -17 -13 -36 -27 -22 -12 12 -4 33 11 33 5 0 12
-5 16 -11z m1556 -81 c-9 -9 -15 -9 -24 0 -9 9 -7 12 12 12 19 0 21 -3 12 -12z
m-258 -24 c8 -21 -20 -54 -46 -54 -24 0 -23 17 2 32 11 7 20 18 20 25 0 19 17
16 24 -3z m-850 -39 c-7 -18 -35 -28 -47 -16 -5 5 0 15 14 24 25 18 41 14 33
-8z m4086 -119 c0 -18 -30 -30 -43 -17 -5 5 -6 14 -3 20 10 16 46 13 46 -3z
m-4233 -69 c-10 -46 -45 -97 -67 -97 -5 0 -10 6 -10 14 0 8 -5 16 -11 18 -5 2
11 31 37 66 27 34 51 59 55 54 4 -4 3 -29 -4 -55z m3909 -32 c10 -53 -33 -104
-50 -59 -8 21 -8 109 1 117 12 12 42 -25 49 -58z m2424 -90 c0 -8 -7 -15 -15
-15 -16 0 -20 12 -8 23 11 12 23 8 23 -8z m-6453 -77 c-3 -8 -6 -5 -6 6 -1 11
2 17 5 13 3 -3 4 -12 1 -19z m217 -24 c3 -8 2 -12 -4 -9 -6 3 -10 10 -10 16 0
14 7 11 14 -7z m3 -46 c-3 -8 -6 -5 -6 6 -1 11 2 17 5 13 3 -3 4 -12 1 -19z
m31 -33 c-3 -3 -9 2 -12 12 -6 14 -5 15 5 6 7 -7 10 -15 7 -18z m-28 -25 c0
-5 -4 -10 -10 -10 -5 0 -10 5 -10 10 0 6 5 10 10 10 6 0 10 -4 10 -10z m-53
-57 c-3 -10 -5 -4 -5 12 0 17 2 24 5 18 2 -7 2 -21 0 -30z m4013 -37 c0 -8 -4
-17 -9 -21 -12 -7 -24 12 -16 25 9 15 25 12 25 -4z m793 8 c43 -4 77 -11 77
-17 0 -6 -20 -7 -52 -2 -29 4 -78 8 -110 9 -31 0 -54 4 -51 9 5 9 37 9 136 1z
m-4778 -34 c10 -11 16 -20 13 -20 -3 0 -13 9 -23 20 -10 11 -16 20 -13 20 3 0
13 -9 23 -20z m703 -81 c-1 -19 7 -39 20 -52 20 -20 25 -20 69 -8 79 22 93 24
93 12 0 -6 -8 -11 -17 -11 -24 0 -83 -23 -83 -32 0 -4 -12 -14 -27 -22 -16 -8
-54 -40 -86 -71 -43 -42 -62 -54 -70 -46 -8 8 -2 22 20 53 16 24 32 51 36 60
4 10 13 15 25 11 29 -7 38 16 14 39 -16 17 -23 18 -41 8 -17 -9 -26 -9 -37 1
-24 20 -16 35 27 48 22 7 43 19 46 27 8 22 12 17 11 -17z m5132 -14 l25 -15
-34 2 c-19 2 -36 9 -39 16 -5 16 17 15 48 -3z m45 -54 c3 -5 0 -30 -7 -54 -10
-39 -9 -47 5 -62 9 -9 17 -24 17 -32 0 -44 -25 -151 -41 -178 -11 -16 -19 -43
-19 -59 0 -43 21 -103 42 -122 17 -16 20 -16 43 6 27 26 55 21 55 -10 0 -11 7
-20 15 -20 25 0 17 -29 -12 -48 -25 -15 -28 -22 -25 -65 2 -30 8 -50 18 -54
15 -6 20 -33 5 -33 -14 0 -24 -40 -22 -85 1 -22 -3 -55 -8 -72 -13 -46 3 -51
45 -14 37 33 84 42 84 16 0 -8 -22 -58 -49 -112 -59 -118 -101 -210 -101 -223
0 -5 -10 -12 -21 -15 -24 -8 -39 8 -39 42 0 35 -14 34 -53 -2 -43 -41 -74 -45
-86 -12 -6 16 -2 33 15 63 13 22 24 55 24 72 0 26 -7 36 -40 57 -46 29 -53 30
-70 10 -18 -21 -29 -19 -23 6 5 18 2 20 -23 17 -22 -2 -34 -13 -49 -40 -11
-21 -24 -36 -30 -35 -17 6 -17 48 0 67 9 10 14 24 10 30 -3 6 -1 9 7 8 8 -2
14 8 16 25 3 23 8 27 33 27 34 0 35 6 9 40 -29 38 -26 60 9 60 54 0 77 -61 45
-122 -12 -23 -13 -33 -4 -42 8 -8 17 -4 35 17 35 40 42 91 19 135 -11 19 -25
48 -33 64 -12 22 -21 28 -47 28 -40 0 -51 15 -30 39 8 9 17 28 18 42 3 23 1
24 -47 22 -77 -4 -92 -10 -115 -49 -18 -28 -21 -44 -16 -80 3 -24 9 -65 12
-90 4 -29 2 -54 -6 -69 -11 -20 -11 -27 0 -40 8 -10 12 -39 11 -75 -2 -58 -1
-60 23 -60 45 0 43 -35 -4 -103 -50 -70 -53 -102 -16 -134 37 -31 47 -29 33 7
-10 26 -9 37 8 68 33 62 51 49 47 -35 -2 -56 2 -82 18 -117 26 -59 26 -121 -2
-176 -30 -60 -53 -60 -54 0 -1 25 -2 46 -3 47 -1 2 -29 -12 -62 -29 l-61 -32
-19 23 c-13 16 -16 28 -10 39 7 12 3 19 -13 27 -11 7 -38 22 -58 34 l-37 22
-20 -20 c-17 -17 -21 -34 -21 -85 0 -69 -9 -103 -36 -134 -9 -11 -24 -42 -33
-69 -15 -46 -18 -48 -52 -47 -44 1 -129 39 -190 85 -52 38 -96 107 -86 134 4
9 0 37 -8 61 -19 57 -19 57 9 91 18 21 25 43 27 83 1 30 0 62 -4 70 -3 8 -8
36 -11 63 -5 40 -3 47 12 47 9 0 23 -9 30 -20 7 -11 18 -20 25 -19 7 0 8 2 1
5 -18 7 12 103 48 154 88 125 151 189 189 190 8 0 40 23 71 50 45 40 61 63 82
118 32 84 32 91 -2 124 -26 24 -32 25 -77 17 -61 -11 -88 -34 -74 -60 16 -31
0 -42 -28 -19 -14 11 -41 20 -59 20 -23 0 -34 5 -39 19 -3 10 -14 29 -25 41
-11 13 -20 35 -21 49 -2 63 4 108 17 129 20 30 29 113 17 149 -12 35 -3 73 20
87 15 9 23 6 43 -19 21 -26 30 -30 76 -30 29 -1 61 -5 71 -9 12 -6 17 -4 17 8
0 22 41 36 85 29 25 -4 44 -16 66 -44 43 -54 55 -50 64 19 7 57 29 97 47 86 6
-4 7 -27 3 -55 -4 -27 -3 -49 2 -49 4 0 29 22 56 48 39 40 52 48 76 44 16 -2
32 1 35 7 4 6 17 11 30 11 26 0 52 25 58 55 2 16 14 21 58 26 30 3 60 6 67 7
6 1 14 -2 18 -7z m-1219 -246 c2 -5 -3 -19 -11 -30 -14 -18 -16 -18 -31 -3
-22 22 -11 50 18 46 12 -2 23 -7 24 -13z m2337 -70 c-3 -9 -8 -14 -10 -11 -3
3 -2 9 2 15 9 16 15 13 8 -4z m-4686 -207 c-3 -8 -6 -5 -6 6 -1 11 2 17 5 13
3 -3 4 -12 1 -19z m-1812 -28 c3 -5 1 -10 -4 -10 -6 0 -11 5 -11 10 0 6 2 10
4 10 3 0 8 -4 11 -10z m6472 -27 c-3 -10 -5 -4 -5 12 0 17 2 24 5 18 2 -7 2
-21 0 -30z m-4521 -50 c-10 -10 -19 5 -10 18 6 11 8 11 12 0 2 -7 1 -15 -2
-18z m-2906 -153 c0 -5 -4 -10 -10 -10 -5 0 -10 5 -10 10 0 6 5 10 10 10 6 0
10 -4 10 -10z m2190 -26 c0 -16 -16 -19 -25 -4 -8 13 4 32 16 25 5 -4 9 -13 9
-21z m-610 -24 c13 -8 13 -11 -2 -26 -19 -19 -38 -11 -38 17 0 21 16 24 40 9z
m-856 -69 c6 -9 -9 -61 -30 -104 -19 -38 -18 -42 13 -71 27 -25 27 -25 8 -46
-13 -14 -26 -19 -42 -15 -15 3 -32 -3 -55 -23 -54 -47 -77 -56 -104 -42 -21
12 -27 9 -59 -18 -19 -18 -41 -29 -50 -26 -22 9 3 42 40 54 37 12 120 116 130
162 4 17 28 52 54 78 53 55 83 71 95 51z m1748 -53 c-15 -15 -26 -4 -18 18 5
13 9 15 18 6 9 -9 9 -15 0 -24z m5023 -198 c-5 -8 -11 -8 -17 -2 -6 6 -7 16
-3 22 5 8 11 8 17 2 6 -6 7 -16 3 -22z m-2495 -95 c14 -16 6 -35 -16 -35 -8 0
-14 10 -14 25 0 28 12 32 30 10z m-4394 -91 c8 -31 -10 -74 -30 -74 -19 0 -46
27 -46 46 0 53 64 77 76 28z m6844 -3 c0 -6 -4 -13 -10 -16 -5 -3 -10 1 -10 9
0 9 5 16 10 16 6 0 10 -4 10 -9z m-5302 -48 c2 -8 -5 -13 -17 -13 -12 0 -21 6
-21 16 0 18 31 15 38 -3z m-1504 -111 c-1 -72 -61 -127 -94 -87 -29 35 34 142
79 133 12 -3 16 -15 15 -46z m3444 -34 c-6 -18 -28 -21 -28 -4 0 9 7 16 16 16
9 0 14 -5 12 -12z m-3925 -158 c11 -43 -2 -60 -49 -60 -43 0 -44 1 -44 33 0
42 5 47 51 47 28 0 38 -5 42 -20z m2907 -260 c0 -5 -4 -10 -10 -10 -5 0 -10 5
-10 10 0 6 5 10 10 10 6 0 10 -4 10 -10z m-160 -100 c0 -5 -4 -10 -10 -10 -5
0 -10 5 -10 10 0 6 5 10 10 10 6 0 10 -4 10 -10z"/>
<path d="M2710 6816 c0 -33 45 -132 64 -139 40 -15 29 73 -15 126 -35 43 -49
46 -49 13z"/>
<path d="M2843 6734 c-7 -18 11 -39 26 -30 17 11 13 46 -4 46 -9 0 -18 -7 -22
-16z"/>
<path d="M3335 6699 c-4 -6 -5 -12 -2 -15 2 -3 7 2 10 11 7 17 1 20 -8 4z"/>
<path d="M1323 6320 c-24 -10 -43 -21 -43 -25 0 -12 80 -4 94 11 37 37 13 43
-51 14z"/>
<path d="M1307 6243 c-4 -3 -7 -15 -7 -25 0 -28 34 -19 38 10 3 21 -16 31 -31
15z"/>
<path d="M3031 6186 c-10 -12 -9 -20 4 -40 21 -31 32 -33 40 -6 14 45 -18 78
-44 46z"/>
<path d="M3038 5671 c-9 -11 -33 -23 -52 -27 -37 -6 -58 -34 -70 -91 -10 -50
29 -72 138 -78 80 -5 94 11 72 83 -8 26 -17 59 -20 74 -6 26 -30 58 -44 58 -4
0 -15 -9 -24 -19z"/>
<path d="M5241 5159 c11 -22 29 -25 29 -5 0 7 -9 16 -20 19 -17 4 -18 2 -9
-14z"/>
<path d="M2566 5125 c-22 -23 -38 -91 -31 -134 3 -20 1 -50 -4 -68 -7 -25 -6
-35 6 -45 42 -34 31 -123 -29 -235 -37 -69 -36 -92 6 -125 19 -16 37 -28 40
-28 2 0 21 30 42 67 36 66 44 105 28 154 -2 9 1 23 8 31 28 30 78 109 84 134
4 14 19 35 35 46 30 23 39 48 16 48 -18 0 -47 32 -47 52 0 9 -7 21 -15 28 -8
7 -15 21 -15 30 0 21 -57 60 -88 60 -11 0 -28 -7 -36 -15z"/>
<path d="M3770 4993 c-11 -8 -20 -21 -20 -29 0 -8 -3 -13 -7 -12 -5 1 -20 -4
-35 -10 -27 -11 -88 1 -88 17 0 4 -19 7 -42 7 -33 -1 -59 -12 -110 -45 -38
-24 -68 -50 -68 -57 0 -7 16 -22 35 -34 34 -21 46 -52 25 -65 -5 -3 -10 -14
-10 -25 0 -11 -10 -20 -27 -25 -21 -5 -24 -8 -12 -16 10 -7 6 -8 -13 -3 -40 9
-66 -9 -61 -43 4 -25 -1 -31 -51 -55 -38 -19 -57 -35 -62 -52 -4 -17 -13 -24
-32 -24 -15 -1 -36 -2 -47 -2 -11 -1 -30 2 -41 4 -13 4 -31 -1 -43 -12 -20
-17 -20 -17 -2 -58 15 -33 28 -44 71 -62 29 -12 65 -22 81 -22 16 0 44 -8 63
-17 l35 -16 44 46 c41 45 55 51 103 48 15 -2 27 10 45 43 16 31 35 50 61 62
21 9 38 21 38 26 0 21 22 5 35 -26 14 -34 16 -35 61 -30 26 2 62 14 81 26 28
16 41 19 62 12 21 -8 33 -5 67 18 23 15 46 28 50 28 12 1 55 70 49 79 -6 10
43 33 55 26 5 -3 12 5 16 17 4 13 2 24 -5 26 -15 5 -13 20 9 67 19 40 19 40
-3 63 -11 12 -34 26 -51 30 -26 7 -34 3 -69 -35 -22 -24 -46 -43 -53 -43 -28
0 -13 28 40 75 67 60 65 80 -8 94 -95 18 -144 19 -166 4z m-15 -323 c-21 -21
-42 -37 -47 -33 -13 7 52 73 71 73 9 0 1 -15 -24 -40z"/>
<path d="M1057 4899 c4 -13 8 -18 11 -10 2 7 -1 18 -6 23 -8 8 -9 4 -5 -13z"/>
<path d="M4252 4723 c-6 -3 -10 -9 -6 -14 3 -5 2 -9 -3 -10 -32 -3 -58 -11
-61 -19 -2 -5 -13 -5 -28 1 -34 12 -36 12 -23 -10 18 -28 4 -49 -35 -56 -57
-11 -62 -27 -21 -70 l35 -38 19 24 c16 20 23 22 47 14 33 -12 40 -28 20 -47
-20 -21 -21 -57 -3 -98 16 -34 15 -36 -6 -54 -12 -10 -34 -23 -49 -28 -30 -11
-46 -44 -29 -61 18 -18 44 -14 61 8 16 21 60 33 60 17 0 -6 11 -13 25 -16 14
-4 24 -10 21 -15 -3 -4 6 -13 19 -19 14 -7 25 -16 25 -22 0 -18 39 -11 50 10
6 11 15 50 20 87 5 38 18 92 29 121 l21 53 -24 24 c-13 13 -27 39 -31 57 -9
42 -18 47 -67 40 -30 -4 -38 -2 -36 9 2 8 7 17 11 20 5 3 9 12 10 20 2 8 6 19
10 26 7 12 -1 42 -12 44 -3 0 -13 2 -21 3 -8 2 -21 1 -28 -1z"/>
<path d="M1855 4580 c-3 -6 -10 -8 -15 -5 -17 10 -19 -28 -3 -56 16 -27 16
-29 -5 -52 -34 -36 -28 -47 23 -47 39 0 47 4 57 25 8 19 8 31 0 48 -6 12 -15
37 -20 56 -8 36 -25 50 -37 31z"/>
<path d="M2443 4504 c-10 -14 -25 -33 -34 -41 -16 -14 -15 -18 9 -44 14 -16
31 -29 38 -29 12 0 74 65 74 78 -1 12 -48 62 -59 62 -6 0 -18 -12 -28 -26z"/>
<path d="M3534 4498 l-19 -23 23 19 c21 18 27 26 19 26 -2 0 -12 -10 -23 -22z"/>
<path d="M3648 4463 c7 -3 16 -2 19 1 4 3 -2 6 -13 5 -11 0 -14 -3 -6 -6z"/>
<path d="M2365 4262 c9 -9 -33 -43 -61 -48 -34 -6 -44 -22 -65 -96 -20 -73
-19 -80 10 -73 14 4 35 17 46 29 11 13 34 33 51 44 31 21 79 112 72 134 -2 6
-16 12 -31 12 -14 1 -24 0 -22 -2z"/>
<path d="M2597 3800 c-49 -31 -74 -68 -64 -94 10 -24 39 -19 83 14 21 16 47
30 56 30 15 0 38 27 38 44 0 11 -33 36 -49 36 -9 0 -38 -13 -64 -30z"/>
<path d="M2988 3353 c-28 -32 -31 -60 -8 -83 19 -19 24 -20 43 -7 38 25 32
107 -8 107 -6 0 -19 -8 -27 -17z"/>
<path d="M4157 3333 c-12 -12 -7 -22 8 -17 8 4 15 10 15 15 0 11 -14 12 -23 2z"/>
<path d="M7759 3098 c-3 -101 -14 -137 -50 -170 -28 -26 -28 -29 -19 -78 11
-58 33 -101 61 -118 18 -11 19 -9 19 33 0 30 -4 44 -12 43 -6 -2 -14 5 -16 15
-2 10 2 17 12 17 14 0 16 20 16 150 0 83 -2 150 -5 150 -3 0 -6 -19 -6 -42z"/>
<path d="M4020 3060 c0 -5 9 -10 21 -10 11 0 17 5 14 10 -3 6 -13 10 -21 10
-8 0 -14 -4 -14 -10z"/>
<path d="M3760 2710 c-11 -11 -20 -24 -20 -29 0 -5 -16 -15 -35 -21 -19 -6
-40 -20 -45 -30 -15 -29 -12 -76 8 -100 15 -18 24 -21 56 -15 26 5 40 14 46
31 9 24 28 32 90 36 28 2 36 8 38 26 8 53 -48 122 -97 122 -12 0 -30 -9 -41
-20z"/>
<path d="M6440 2690 c0 -5 7 -7 15 -4 8 4 15 8 15 10 0 2 -7 4 -15 4 -8 0 -15
-4 -15 -10z"/>
<path d="M1337 2563 c-4 -3 -7 -16 -7 -29 0 -27 -47 -76 -89 -94 -41 -17 -40
-34 1 -26 85 17 170 103 138 141 -13 16 -32 20 -43 8z"/>
<path d="M6106 2451 c-4 -5 -2 -12 3 -15 5 -4 12 -2 15 3 4 5 2 12 -3 15 -5 4
-12 2 -15 -3z"/>
<path d="M510 2058 c0 -7 4 -19 9 -27 11 -17 23 1 15 23 -7 19 -24 21 -24 4z"/>
<path d="M322 1735 c-23 -29 -19 -55 13 -85 18 -16 31 -21 49 -16 22 5 26 12
26 44 0 27 -7 45 -23 60 -30 28 -41 28 -65 -3z"/>
<path d="M7400 425 c-19 -7 -40 -10 -46 -8 -6 2 -17 -3 -24 -12 -11 -14 -9
-20 18 -45 31 -28 31 -29 17 -63 -14 -34 -13 -36 15 -72 33 -42 37 -55 16 -55
-8 0 -28 -11 -44 -25 -17 -14 -35 -25 -40 -25 -6 0 -13 -8 -15 -17 -4 -14 -5
-12 -6 5 0 12 -4 22 -8 23 -5 0 -38 1 -76 2 -54 1 -68 5 -73 19 -3 10 -2 22 1
28 9 15 -31 12 -42 -2 -6 -7 -18 -36 -27 -65 -10 -28 -24 -57 -32 -63 -7 -7
-14 -21 -14 -31 0 -18 16 -19 375 -19 l375 0 0 103 c-1 68 -5 108 -14 119 -15
21 -64 30 -158 32 -73 1 -87 8 -68 31 11 13 9 19 -6 38 -26 30 -48 46 -56 41
-9 -6 -20 13 -27 46 -6 26 -7 27 -41 15z m90 -205 c-12 -28 -40 -42 -40 -20 0
6 7 10 15 10 8 0 17 11 21 25 4 14 9 24 12 21 2 -3 -1 -19 -8 -36z m-55 -18
c-8 -8 -25 17 -25 38 0 9 6 6 16 -8 9 -13 13 -26 9 -30z m140 -82 c3 -5 1 -10
-4 -10 -6 0 -11 5 -11 10 0 6 2 10 4 10 3 0 8 -4 11 -10z m60 -80 c3 -5 1 -10
-4 -10 -6 0 -11 5 -11 10 0 6 2 10 4 10 3 0 8 -4 11 -10z m-270 -10 c-3 -5
-12 -10 -18 -10 -7 0 -6 4 3 10 19 12 23 12 15 0z"/>
</g>
</svg>
